<svg xmlns="http://www.w3.org/2000/svg" xmlns:xlink="http://www.w3.org/1999/xlink" width="72" height="72" viewBox="0 0 72 72">
  <defs>
    <clipPath id="clip-path">
      <rect id="Rectangle_137" data-name="Rectangle 137" width="72" height="72" rx="12" transform="translate(771 167)" fill="#1675df"/>
    </clipPath>
  </defs>
  <g id="Mask_Group_42" data-name="Mask Group 42" transform="translate(-771 -167)" clip-path="url(#clip-path)">
    <g id="briefcase_2_" data-name="briefcase (2)" transform="translate(771 173)">
      <g id="Group_346" data-name="Group 346" transform="translate(0 0)">
        <g id="Group_345" data-name="Group 345">
          <path id="Path_233" data-name="Path 233" d="M66,22.333H51v-3a6.006,6.006,0,0,0-6-6H27a6.006,6.006,0,0,0-6,6v3H6a6.006,6.006,0,0,0-6,6v9a6.006,6.006,0,0,0,6,6H30v-1.5a1.5,1.5,0,0,1,1.5-1.5h9a1.5,1.5,0,0,1,1.5,1.5v1.5H66a6.006,6.006,0,0,0,6-6v-9A6.006,6.006,0,0,0,66,22.333Zm-21,0H27v-3H45Z" transform="translate(0 -13.333)" fill="#1675df"/>
          <path id="Path_234" data-name="Path 234" d="M71.168,83.4a1.5,1.5,0,0,0-1.573.148A5.923,5.923,0,0,1,66,84.784H42v4.5a1.5,1.5,0,0,1-1.5,1.5h-9a1.5,1.5,0,0,1-1.5-1.5v-4.5H6a5.923,5.923,0,0,1-3.595-1.233A1.5,1.5,0,0,0,0,84.746v21.038a6.006,6.006,0,0,0,6,6H66a6.006,6.006,0,0,0,6-6V84.746A1.5,1.5,0,0,0,71.168,83.4Z" transform="translate(0 -51.784)" fill="#1675df"/>
        </g>
      </g>
    </g>
  </g>
</svg>
