<svg xmlns="http://www.w3.org/2000/svg" xmlns:xlink="http://www.w3.org/1999/xlink" width="72" height="72" viewBox="0 0 72 72">
  <defs>
    <clipPath id="clip-path">
      <rect id="Rectangle_138" data-name="Rectangle 138" width="72" height="72" rx="12" transform="translate(989 167)" fill="#1675df"/>
    </clipPath>
  </defs>
  <g id="Mask_Group_43" data-name="Mask Group 43" transform="translate(-989 -167)" clip-path="url(#clip-path)">
    <g id="house-boat" transform="translate(989 175.654)">
      <path id="Path_235" data-name="Path 235" d="M19.058,77.982h4.218v4.5H19.058Z" transform="translate(-10.482 -51.545)" fill="#1675df"/>
      <path id="Path_236" data-name="Path 236" d="M65.92,77.982h4.218v4.5H65.92Z" transform="translate(-36.256 -51.545)" fill="#1675df"/>
      <path id="Path_237" data-name="Path 237" d="M112.782,77.982H117v4.5h-4.218Z" transform="translate(-62.03 -51.545)" fill="#1675df"/>
      <path id="Path_238" data-name="Path 238" d="M69.872,68.607H65.811a6.491,6.491,0,0,0-6.483,6.485v2.142a4.315,4.315,0,0,1-4.31,4.311H8.527a4.315,4.315,0,0,1-4.31-4.311,2.109,2.109,0,1,0-4.218,0V87.888a14.765,14.765,0,0,0,.822,4.858c.783-.161,1.1-.04,1.41-.438a6.333,6.333,0,0,1,10.016,0,.991.991,0,0,0,1.485,0,6.332,6.332,0,0,1,10.015,0,.992.992,0,0,0,1.485,0,6.332,6.332,0,0,1,10.015,0,.992.992,0,0,0,1.486,0,6.333,6.333,0,0,1,10.015,0,.992.992,0,0,0,1.486,0,6.332,6.332,0,0,1,10.015,0,.992.992,0,0,0,1.485,0,6.333,6.333,0,0,1,10.016,0c.306.4.638.279,1.409.438,1.374-3.942.6-5.531.822-22.031a2.109,2.109,0,0,0-2.109-2.109Z" transform="translate(0 -46.388)" fill="#1675df"/>
      <path id="Path_239" data-name="Path 239" d="M70.045,127.956A5.054,5.054,0,0,1,66.41,126a2.109,2.109,0,0,0-3.338,0,5.2,5.2,0,0,1-8.162,0,2.109,2.109,0,0,0-3.338,0,5.2,5.2,0,0,1-8.162,0,2.109,2.109,0,0,0-3.338,0,5.2,5.2,0,0,1-8.162,0,2.109,2.109,0,0,0-3.338,0,5.2,5.2,0,0,1-8.162,0,2.109,2.109,0,0,0-3.338,0,5.2,5.2,0,0,1-8.162,0,2.109,2.109,0,0,0-3.338,0,5.053,5.053,0,0,1-3.635,1.953,2.109,2.109,0,0,0,.346,4.2,9.4,9.4,0,0,0,4.954-1.911,9.483,9.483,0,0,0,11.5,0,9.483,9.483,0,0,0,11.5,0,9.483,9.483,0,0,0,11.5,0,9.487,9.487,0,0,0,11.5,0,9.483,9.483,0,0,0,11.5,0A9.4,9.4,0,0,0,69.7,132.16a2.109,2.109,0,0,0,.346-4.2Z" transform="translate(0 -77.504)" fill="#1675df"/>
      <path id="Path_240" data-name="Path 240" d="M63.889,33.051a6.928,6.928,0,0,0-6.927-6.928H55.454a6.89,6.89,0,0,0-6.889-6.891h-29.8a6.89,6.89,0,0,0-6.889,6.891H10.363a6.928,6.928,0,0,0-6.927,6.928Z" transform="translate(-1.89 -19.232)" fill="#1675df"/>
      <path id="Path_241" data-name="Path 241" d="M65.451,59.316H19.058V63.5h6.326a2.109,2.109,0,0,1,2.109,2.109v6.609h8.435V65.606A2.109,2.109,0,0,1,38.037,63.5h8.435a2.109,2.109,0,0,1,2.109,2.109v6.609h8.435V65.606A2.109,2.109,0,0,1,59.125,63.5h6.326Z" transform="translate(-10.482 -41.278)" fill="#1675df"/>
    </g>
  </g>
</svg>
